<svg xmlns="http://www.w3.org/2000/svg" x="0px" y="0px" viewBox="0 0 864 864" enable-background="new 0 0 864 864"><style>.ls0{fill:#09121b}</style><g><g><path class="ls0" d="M160.3,253.6c-8.8,13.4-16.6,27.4-23.4,42.1c-16.2,35-26.4,73.4-29.1,113.9c-0.5,7.4-0.8,14.9-0.8,22.5 s0.3,15.1,0.8,22.5c2.8,40.4,12.9,78.8,29.1,113.9c6.8,14.7,14.6,28.7,23.4,42.1c26.6,40.4,62,74.5,103.4,99.7 c14.3,8.7,29.4,16.3,45,22.7V567.6h-45v88.2c-10.4-7.8-20.4-16.5-29.8-25.9c-13.7-13.7-25.7-28.5-36.1-44.2 c-7.7-11.6-14.4-23.7-20.2-36.2c-13.8-29.7-22.2-61.8-24.8-95c-0.6-7.4-0.9-15-0.9-22.5s0.3-15.1,0.9-22.5 c2.6-33.2,11.1-65.3,24.8-95c5.8-12.5,12.5-24.6,20.2-36.2c10.4-15.8,22.5-30.6,36.1-44.2c9.4-9.4,19.3-18,29.8-25.9v88.2h45V131.2 c-15.6,6.4-30.7,14-45,22.7C222.3,179,186.9,213.1,160.3,253.6z"/></g><g><path class="ls0" d="M492.8,569.1l-0.4-1.4l-31-113.1l-1-3.8l-1.7-6.3l-6-21.9l-0.9-3.4l-2.6-9.5l-31-113.1L380,156.8l-8.8-32.3 l-3.1-11.2c-14.3,2.8-28.3,6.7-41.9,11.3v614.7c14.6,5,29.6,9,45,12V294.9l0.4,1.4l31,113.1l1,3.8l1.7,6.3l6,21.9l0.9,3.4l2.6,9.5 l31,113.1L484,707.2l8.8,32.3l3.1,11.2c14.3-2.8,28.3-6.7,41.9-11.3V124.7c-14.6-5-29.6-9-45-12V569.1z"/></g><g><path class="ls0" d="M600.2,341.1v-133c10.4,7.8,20.4,16.5,29.8,25.9c13.6,13.6,25.7,28.5,36.1,44.2c7.7,11.6,14.4,23.7,20.2,36.2 l40.8-18.8c-6.8-14.7-14.6-28.7-23.4-42.1c-26.6-40.4-62-74.6-103.4-99.7c-14.3-8.7-29.4-16.3-45-22.7v228.5 c132.8,132.8,14,14,146.8,146.8c-4,14.8-9.3,29.1-15.7,43c-5.8,12.5-12.5,24.6-20.2,36.2c-10.4,15.8-22.5,30.6-36.1,44.2 c-9.4,9.4-19.3,18-29.8,25.9v-88.2h-45v165.2c15.6-6.4,30.7-14,45-22.7c41.5-25.1,76.8-59.2,103.4-99.7 c8.8-13.4,16.6-27.4,23.4-42.1c9.1-19.7,16.3-40.4,21.3-61.9c1.1-4.7,2.1-9.4,3-14.2C742.1,482.9,606,346.9,600.2,341.1z"/></g></g></svg>